<mxfile host="app.diagrams.net" agent="Mozilla/5.0 (Windows NT 10.0; Win64; x64; rv:141.0) Gecko/20100101 Firefox/141.0" version="28.0.7">
  <diagram name="第 1 页" id="cGDIKYtJJraAiSs_bGuU">
    <mxGraphModel dx="1850" dy="1111" grid="1" gridSize="10" guides="1" tooltips="1" connect="1" arrows="1" fold="1" page="1" pageScale="1" pageWidth="827" pageHeight="1169" math="0" shadow="0">
      <root>
        <mxCell id="0" />
        <mxCell id="1" parent="0" />
        <mxCell id="UJgdK4v9hT6Y12ngC4lK-7" style="edgeStyle=orthogonalEdgeStyle;rounded=0;orthogonalLoop=1;jettySize=auto;html=1;entryX=0.5;entryY=0;entryDx=0;entryDy=0;" edge="1" parent="1" source="UJgdK4v9hT6Y12ngC4lK-1" target="UJgdK4v9hT6Y12ngC4lK-8">
          <mxGeometry relative="1" as="geometry">
            <mxPoint x="110" y="410" as="targetPoint" />
            <Array as="points">
              <mxPoint x="190" y="360" />
              <mxPoint x="111" y="360" />
            </Array>
          </mxGeometry>
        </mxCell>
        <mxCell id="UJgdK4v9hT6Y12ngC4lK-18" style="edgeStyle=orthogonalEdgeStyle;rounded=0;orthogonalLoop=1;jettySize=auto;html=1;entryX=0.5;entryY=0;entryDx=0;entryDy=0;" edge="1" parent="1" source="UJgdK4v9hT6Y12ngC4lK-1" target="UJgdK4v9hT6Y12ngC4lK-10">
          <mxGeometry relative="1" as="geometry">
            <Array as="points">
              <mxPoint x="190" y="360" />
              <mxPoint x="300" y="360" />
            </Array>
          </mxGeometry>
        </mxCell>
        <mxCell id="UJgdK4v9hT6Y12ngC4lK-1" value="产生日志/状态切换" style="whiteSpace=wrap;html=1;aspect=fixed;" vertex="1" parent="1">
          <mxGeometry x="150" y="240" width="80" height="80" as="geometry" />
        </mxCell>
        <mxCell id="UJgdK4v9hT6Y12ngC4lK-16" value="" style="edgeStyle=orthogonalEdgeStyle;rounded=0;orthogonalLoop=1;jettySize=auto;html=1;" edge="1" parent="1" source="UJgdK4v9hT6Y12ngC4lK-8" target="UJgdK4v9hT6Y12ngC4lK-15">
          <mxGeometry relative="1" as="geometry">
            <Array as="points">
              <mxPoint x="110" y="640" />
              <mxPoint x="200" y="640" />
            </Array>
          </mxGeometry>
        </mxCell>
        <mxCell id="UJgdK4v9hT6Y12ngC4lK-8" value="保存到自己数据库" style="whiteSpace=wrap;html=1;aspect=fixed;" vertex="1" parent="1">
          <mxGeometry x="70" y="460" width="80" height="80" as="geometry" />
        </mxCell>
        <mxCell id="UJgdK4v9hT6Y12ngC4lK-12" value="" style="edgeStyle=orthogonalEdgeStyle;rounded=0;orthogonalLoop=1;jettySize=auto;html=1;" edge="1" parent="1" source="UJgdK4v9hT6Y12ngC4lK-10" target="UJgdK4v9hT6Y12ngC4lK-11">
          <mxGeometry relative="1" as="geometry" />
        </mxCell>
        <mxCell id="UJgdK4v9hT6Y12ngC4lK-10" value="文案调整" style="whiteSpace=wrap;html=1;aspect=fixed;" vertex="1" parent="1">
          <mxGeometry x="260" y="390" width="80" height="80" as="geometry" />
        </mxCell>
        <mxCell id="UJgdK4v9hT6Y12ngC4lK-17" style="edgeStyle=orthogonalEdgeStyle;rounded=0;orthogonalLoop=1;jettySize=auto;html=1;" edge="1" parent="1" source="UJgdK4v9hT6Y12ngC4lK-11" target="UJgdK4v9hT6Y12ngC4lK-15">
          <mxGeometry relative="1" as="geometry">
            <Array as="points">
              <mxPoint x="300" y="640" />
              <mxPoint x="200" y="640" />
            </Array>
          </mxGeometry>
        </mxCell>
        <mxCell id="UJgdK4v9hT6Y12ngC4lK-11" value="推入MQ" style="whiteSpace=wrap;html=1;aspect=fixed;" vertex="1" parent="1">
          <mxGeometry x="260" y="530" width="80" height="80" as="geometry" />
        </mxCell>
        <mxCell id="UJgdK4v9hT6Y12ngC4lK-14" value="" style="edgeStyle=orthogonalEdgeStyle;rounded=0;orthogonalLoop=1;jettySize=auto;html=1;" edge="1" parent="1" source="UJgdK4v9hT6Y12ngC4lK-13" target="UJgdK4v9hT6Y12ngC4lK-1">
          <mxGeometry relative="1" as="geometry" />
        </mxCell>
        <mxCell id="UJgdK4v9hT6Y12ngC4lK-13" value="开始" style="rounded=1;whiteSpace=wrap;html=1;fillColor=#dae8fc;strokeColor=#6c8ebf;" vertex="1" parent="1">
          <mxGeometry x="130" y="150" width="120" height="60" as="geometry" />
        </mxCell>
        <mxCell id="UJgdK4v9hT6Y12ngC4lK-15" value="结束" style="rounded=1;whiteSpace=wrap;html=1;fillColor=#f8cecc;strokeColor=#b85450;" vertex="1" parent="1">
          <mxGeometry x="140" y="720" width="120" height="60" as="geometry" />
        </mxCell>
        <mxCell id="UJgdK4v9hT6Y12ngC4lK-23" value="" style="edgeStyle=orthogonalEdgeStyle;rounded=0;orthogonalLoop=1;jettySize=auto;html=1;" edge="1" parent="1" source="UJgdK4v9hT6Y12ngC4lK-19" target="UJgdK4v9hT6Y12ngC4lK-22">
          <mxGeometry relative="1" as="geometry" />
        </mxCell>
        <mxCell id="UJgdK4v9hT6Y12ngC4lK-19" value="开始" style="rounded=1;whiteSpace=wrap;html=1;fillColor=#dae8fc;strokeColor=#6c8ebf;" vertex="1" parent="1">
          <mxGeometry x="480" y="150" width="120" height="60" as="geometry" />
        </mxCell>
        <mxCell id="UJgdK4v9hT6Y12ngC4lK-25" value="" style="edgeStyle=orthogonalEdgeStyle;rounded=0;orthogonalLoop=1;jettySize=auto;html=1;" edge="1" parent="1" source="UJgdK4v9hT6Y12ngC4lK-22" target="UJgdK4v9hT6Y12ngC4lK-24">
          <mxGeometry relative="1" as="geometry" />
        </mxCell>
        <mxCell id="UJgdK4v9hT6Y12ngC4lK-22" value="从MQ获取数据" style="rounded=0;whiteSpace=wrap;html=1;" vertex="1" parent="1">
          <mxGeometry x="480" y="280" width="120" height="60" as="geometry" />
        </mxCell>
        <mxCell id="UJgdK4v9hT6Y12ngC4lK-27" value="" style="edgeStyle=orthogonalEdgeStyle;rounded=0;orthogonalLoop=1;jettySize=auto;html=1;" edge="1" parent="1" source="UJgdK4v9hT6Y12ngC4lK-24" target="UJgdK4v9hT6Y12ngC4lK-26">
          <mxGeometry relative="1" as="geometry" />
        </mxCell>
        <mxCell id="UJgdK4v9hT6Y12ngC4lK-24" value="计算订单状态" style="whiteSpace=wrap;html=1;rounded=0;" vertex="1" parent="1">
          <mxGeometry x="480" y="400" width="120" height="60" as="geometry" />
        </mxCell>
        <mxCell id="UJgdK4v9hT6Y12ngC4lK-29" style="edgeStyle=orthogonalEdgeStyle;rounded=0;orthogonalLoop=1;jettySize=auto;html=1;entryX=0.5;entryY=0;entryDx=0;entryDy=0;" edge="1" parent="1" source="UJgdK4v9hT6Y12ngC4lK-26" target="UJgdK4v9hT6Y12ngC4lK-28">
          <mxGeometry relative="1" as="geometry" />
        </mxCell>
        <mxCell id="UJgdK4v9hT6Y12ngC4lK-26" value="保存到数据库" style="whiteSpace=wrap;html=1;rounded=0;" vertex="1" parent="1">
          <mxGeometry x="480" y="555" width="120" height="60" as="geometry" />
        </mxCell>
        <mxCell id="UJgdK4v9hT6Y12ngC4lK-28" value="结束" style="rounded=1;whiteSpace=wrap;html=1;fillColor=#f8cecc;strokeColor=#b85450;" vertex="1" parent="1">
          <mxGeometry x="480" y="720" width="120" height="60" as="geometry" />
        </mxCell>
        <mxCell id="UJgdK4v9hT6Y12ngC4lK-30" value="ERP" style="swimlane;whiteSpace=wrap;html=1;" vertex="1" parent="1">
          <mxGeometry x="60" y="110" width="290" height="690" as="geometry" />
        </mxCell>
        <mxCell id="UJgdK4v9hT6Y12ngC4lK-31" value="OMS" style="swimlane;whiteSpace=wrap;html=1;" vertex="1" parent="1">
          <mxGeometry x="430" y="110" width="210" height="720" as="geometry" />
        </mxCell>
      </root>
    </mxGraphModel>
  </diagram>
</mxfile>
